Coordinates
version=1
nRows=16
nColumns=36
inDegrees=yes

Units are S.I. units (second, meters, Newtons, ...)
If the header above contains a line with 'inDegrees', this indicates whether rotational values are in degrees (yes) or radians (no).

endheader
time	pelvis_tilt	pelvis_list	pelvis_rotation	pelvis_tx	pelvis_ty	pelvis_tz	hip_flexion_r	hip_adduction_r	hip_rotation_r	knee_angle_r	knee_angle_r_beta	ankle_angle_r	subtalar_angle_r	mtp_angle_r	hip_flexion_l	hip_adduction_l	hip_rotation_l	knee_angle_l	knee_angle_l_beta	ankle_angle_l	subtalar_angle_l	mtp_angle_l	lumbar_extension	lumbar_bending	lumbar_rotation	arm_flex_r	arm_add_r	arm_rot_r	elbow_flex_r	pro_sup_r	arm_flex_l	arm_add_l	arm_rot_l	elbow_flex_l	pro_sup_l
      0.00000000	      4.12397737	     -0.65226661	      2.67864844	     -0.95258843	      1.27165850	     -0.07637158	     -7.17580288	      1.83390721	      4.26407555	      5.20761970	      0.09089011	      3.43889560	    -15.15737122	     -6.60712212	     -3.95208378	     -1.94627133	      2.70395251	      7.85985563	      0.13718036	     12.03621657	     -6.92787837	     -6.60712212	    -10.05386216	      1.11952358	     -2.55609994	     11.67759456	     -3.72024756	    -68.95169126	    148.13568043	     62.71231005	      8.90392943	      0.87715273	    -68.07807446	    145.34372377	     71.84510866
      0.00416670	      1.46279183	     -0.97968229	      2.25532284	     -0.95020008	      1.26688521	     -0.07650155	     -4.07891926	      2.18204694	      5.22892137	      5.66315655	      0.09884073	      5.82792936	    -12.61515342	     -6.84908547	     -1.03028949	     -1.72010627	      4.21662735	      7.77789414	      0.13574986	      9.56446420	     -7.78737334	     -6.84908547	     -5.72571881	      2.04438598	     -2.24070059	     11.73622992	     -5.22381802	    -73.98569275	    147.26309729	     60.70649483	      9.68732520	      0.04036542	    -74.47834671	    141.63432761	     71.20787470
      0.00833330	      0.03155229	     -0.51859610	      1.71044891	     -0.94981435	      1.26452142	     -0.07545167	     -2.72117177	      1.53372226	      4.73634586	      5.10185538	      0.08904417	      6.54259939	    -11.84641968	     -6.99888103	      0.39227456	     -1.15471309	      3.69608191	      7.71296697	      0.13461667	      9.11983785	     -7.37721878	     -6.99888103	     -3.68051403	      1.62180910	     -1.11078415	     10.99597368	     -5.79697249	    -75.18380087	    147.13002882	     60.55501925	      8.98736690	     -0.61609122	    -75.20635068	    137.48635728	     70.75095489
      0.01250000	      0.26248615	     -0.20954966	      1.40033918	     -0.94957447	      1.26179343	     -0.07474694	     -3.03964694	      1.09812165	      4.83015151	      4.87688532	      0.08511771	      7.68788446	    -10.58861137	     -7.03513152	     -0.40369784	     -0.69264408	      4.15123392	      6.92162298	      0.12080511	      8.72104411	     -7.78357949	     -7.03513152	     -3.88615463	      1.22956169	     -0.31696397	     10.47059195	     -6.03878311	    -75.93124321	    147.06521539	     60.70082897	      9.55205546	     -1.25364916	    -75.03275797	    135.88240446	     71.03190509
      0.01666670	      0.39504843	     -0.06694521	      1.30627800	     -0.94995817	      1.26504857	     -0.07463412	     -3.36755774	      0.89215510	      4.91461225	      4.59633012	      0.08022109	      8.05526248	    -10.40574493	     -7.30026779	     -0.88239768	     -0.46612736	      4.50837789	      6.26327983	      0.10931485	      8.58542858	     -8.01262251	     -7.30026779	     -4.26341953	      1.03616578	      0.21013995	     10.19164022	     -5.52267225	    -76.01525335	    146.71825624	     61.81316887	     10.35871065	     -1.61044250	    -74.77539569	    134.37580793	     70.46926023
      0.02083330	      0.69917534	      0.02125540	      1.14736833	     -0.94989200	      1.26536918	     -0.07439574	     -3.81578646	      0.79209442	      5.01999484	      4.37664596	      0.07638688	      8.01909054	    -10.82556648	     -7.31588498	     -1.41748321	     -0.35862727	      4.59549610	      5.78480726	      0.10096393	      8.63476891	     -8.10080895	     -7.31588498	     -4.75860258	      0.80030067	      0.76040552	      9.80030080	     -5.44249905	    -75.13406296	    146.09764039	     61.87883725	     10.88138761	     -2.07391326	    -74.54215008	    133.88142341	     70.58996590
      0.02500000	      0.85520340	      0.09629325	      1.15853850	     -0.95020780	      1.26498621	     -0.07409090	     -3.90752923	      0.73892456	      4.74655411	      4.46912908	      0.07800102	      8.25974408	    -10.73723716	     -7.39846931	     -1.66679295	     -0.28423733	      4.85113878	      5.53346605	      0.09657720	      8.64820290	     -8.43047736	     -7.39846931	     -5.03097343	      0.56725051	      1.01526996	      9.50823112	     -5.31026141	    -74.26194214	    145.32841357	     62.20376639	     10.82562703	     -2.00124715	    -74.50669930	    133.47230492	     69.11419518
      0.02916670	      1.27256212	      0.11120970	      0.96896828	     -0.95007859	      1.26510942	     -0.07379859	     -4.42745177	      0.72586460	      4.70095874	      4.29349768	      0.07493567	      8.19227473	    -10.70454832	     -7.42467861	     -2.25083262	     -0.30097666	      4.67087416	      5.26621809	      0.09191284	      8.84078297	     -8.23374913	     -7.42467861	     -5.62880511	      0.49377108	      1.22021238	      9.40384787	     -4.71447541	    -73.58804404	    144.37054135	     61.83046938	     11.20041718	     -2.18514845	    -74.12735730	    132.05703031	     68.18912641
      0.03333330	      1.79309530	      0.09486143	      0.84115145	     -0.95089021	      1.26545303	     -0.07383063	     -5.08023079	      0.73606454	      4.68015770	      4.07919852	      0.07119545	      8.18708044	    -10.80047541	     -7.44616183	     -2.87947441	     -0.31330159	      4.81196813	      5.10886305	      0.08916648	      8.71085163	     -8.67775542	     -7.44616183	     -6.31666288	      0.56539075	      1.04754413	      8.99735335	     -3.94489954	    -72.30642243	    144.00732208	     61.68660337	     11.64557503	     -1.98457340	    -73.64723054	    130.57119323	     66.75385129
      0.03750000	      2.15832057	      0.10847341	      0.94602924	     -0.94449146	      1.26544199	     -0.07848920	     -5.65465584	      0.65578307	      4.45389250	      3.98331790	      0.06952201	      7.91569529	    -10.85435552	     -7.44751197	     -3.52238640	     -0.27103363	      5.00839238	      4.96842837	      0.08671543	      8.69327387	     -8.85319969	     -7.44751197	     -6.54018736	      0.68385122	      0.86325141	      8.41682405	     -3.49435862	    -71.89978901	    142.64111488	     61.46535572	     11.70808133	     -1.68197544	    -73.31736658	    128.76247929	     66.39300753
      0.04166670	      2.38600090	      0.15886601	      1.07009416	     -0.94471998	      1.26524178	     -0.07848632	     -6.07347065	      0.52682254	      4.11532533	      3.94674450	      0.06888369	      7.94174174	    -10.78887119	     -7.45343676	     -3.93684917	     -0.15743101	      5.21264971	      4.88809052	      0.08531327	      8.70411652	     -8.97917499	     -7.45343676	     -6.55238336	      0.79633768	      0.70449137	      7.73398596	     -3.26164536	    -71.00738816	    141.40490376	     61.15345946	     11.59767526	     -1.67039772	    -72.38486120	    126.85055266	     65.40140947
      0.04583330	      2.52584474	      0.20021666	      1.24230597	     -0.94433344	      1.26541917	     -0.07849009	     -6.38020554	      0.47297174	      3.94804387	      3.88276361	      0.06776701	      7.94513877	    -10.67664771	     -7.45786285	     -4.25347058	     -0.08572050	      5.48749498	      4.78592182	      0.08353009	      8.66671091	     -8.99324579	     -7.45786285	     -6.55701178	      0.70891621	      0.36546017	      7.26775138	     -2.60557423	    -70.37766190	    139.47506455	     60.88946199	     11.85306523	     -1.76264319	    -71.60601286	    124.83488125	     64.55578952
      0.05000000	      2.81275773	      0.15841276	      1.34055507	     -0.94512790	      1.26174879	     -0.07856160	     -6.89822224	      0.51246013	      3.73582948	      3.66591656	      0.06398231	      7.78876371	    -10.92522333	     -7.46011993	     -4.69222829	     -0.10242076	      5.67254918	      4.63798678	      0.08094814	      8.67001045	     -9.01428384	     -7.46011993	     -6.85755083	      0.65241353	      0.16352401	      6.82433436	     -2.11222853	    -69.18881850	    137.74904394	     60.54170023	     11.75587528	     -1.79712853	    -70.46319970	    123.79345138	     62.74195870
      0.05416670	      2.79839689	      0.12534381	      1.33096285	     -0.94487560	      1.25806053	     -0.07841767	     -6.83985657	      0.61290097	      3.95644463	      3.69108742	      0.06442163	      7.74988262	    -11.32256459	     -7.46459960	     -4.77830059	     -0.12243280	      5.87760012	      4.62163546	      0.08066276	      8.71173054	     -9.16414010	     -7.46459960	     -6.72329738	      0.40708203	      0.12236924	      6.93888799	     -1.79273626	    -68.16237404	    136.27136096	     60.17932158	     11.26169330	     -1.69300502	    -69.40691451	    123.02561856	     61.06512605
      0.05833330	      2.77154467	      0.06700597	      1.55079098	     -0.94497989	      1.25845150	     -0.07850687	     -6.84088753	      0.74760494	      3.74280045	      3.61725238	      0.06313296	      7.91341492	    -11.10027883	     -7.47359992	     -4.81667929	     -0.20387091	      6.16526664	      4.62466862	      0.08071569	      8.72243939	     -9.13116102	     -7.47359992	     -6.54905632	      0.18093729	      0.03290046	      7.04370521	     -1.14677242	    -67.67943598	    135.01618440	     60.01178562	     10.69738400	     -1.45142842	    -68.29078921	    122.37027075	     60.03225424
      0.06250000	      2.76948185	      0.01930466	      1.63234775	     -0.94423934	      1.26297021	     -0.07839256	     -6.87173121	      0.84718133	      3.72134448	      3.47794257	      0.06070155	      7.93956904	    -10.90839621	     -7.47417170	     -4.92201464	     -0.28137127	      6.39494016	      4.46783766	      0.07797848	      8.61858324	     -8.98350560	     -7.47417170	     -6.38332259	     -0.10411784	      0.07934755	      7.36367541	     -0.25987495	    -67.71351455	    132.78317926	     59.78742526	      9.96018018	     -1.20786020	    -67.61096696	    121.13355607	     59.69112873
